<svg width="35" height="35" viewBox="0 0 35 35" fill="none" xmlns="http://www.w3.org/2000/svg">
<path d="M26.25 17.5C26.25 19.8206 25.3281 22.0462 23.6872 23.6872C22.0462 25.3281 19.8206 26.25 17.5 26.25C15.1794 26.25 12.9538 25.3281 11.3128 23.6872C9.67187 22.0462 8.75 19.8206 8.75 17.5C8.75 15.1794 9.67187 12.9538 11.3128 11.3128C12.9538 9.67187 15.1794 8.75 17.5 8.75C19.8206 8.75 22.0462 9.67187 23.6872 11.3128C25.3281 12.9538 26.25 15.1794 26.25 17.5V17.5ZM18.5938 5.46875C18.5938 5.75883 18.4785 6.03703 18.2734 6.24215C18.0683 6.44727 17.7901 6.5625 17.5 6.5625C17.2099 6.5625 16.9317 6.44727 16.7266 6.24215C16.5215 6.03703 16.4062 5.75883 16.4062 5.46875C16.4062 5.17867 16.5215 4.90047 16.7266 4.69535C16.9317 4.49023 17.2099 4.375 17.5 4.375C17.7901 4.375 18.0683 4.49023 18.2734 4.69535C18.4785 4.90047 18.5938 5.17867 18.5938 5.46875ZM18.5938 29.5312C18.5938 29.8213 18.4785 30.0995 18.2734 30.3046C18.0683 30.5098 17.7901 30.625 17.5 30.625C17.2099 30.625 16.9317 30.5098 16.7266 30.3046C16.5215 30.0995 16.4062 29.8213 16.4062 29.5312C16.4062 29.2412 16.5215 28.963 16.7266 28.7579C16.9317 28.5527 17.2099 28.4375 17.5 28.4375C17.7901 28.4375 18.0683 28.5527 18.2734 28.7579C18.4785 28.963 18.5938 29.2412 18.5938 29.5312ZM29.5312 18.5938C29.2412 18.5938 28.963 18.4785 28.7579 18.2734C28.5527 18.0683 28.4375 17.7901 28.4375 17.5C28.4375 17.2099 28.5527 16.9317 28.7579 16.7266C28.963 16.5215 29.2412 16.4062 29.5312 16.4062C29.8213 16.4062 30.0995 16.5215 30.3046 16.7266C30.5098 16.9317 30.625 17.2099 30.625 17.5C30.625 17.7901 30.5098 18.0683 30.3046 18.2734C30.0995 18.4785 29.8213 18.5938 29.5312 18.5938ZM5.46875 18.5938C5.17867 18.5938 4.90047 18.4785 4.69535 18.2734C4.49023 18.0683 4.375 17.7901 4.375 17.5C4.375 17.2099 4.49023 16.9317 4.69535 16.7266C4.90047 16.5215 5.17867 16.4062 5.46875 16.4062C5.75883 16.4062 6.03703 16.5215 6.24215 16.7266C6.44727 16.9317 6.5625 17.2099 6.5625 17.5C6.5625 17.7901 6.44727 18.0683 6.24215 18.2734C6.03703 18.4785 5.75883 18.5938 5.46875 18.5938ZM26.7816 9.765C26.6807 9.86946 26.56 9.95279 26.4265 10.0101C26.2931 10.0674 26.1496 10.0976 26.0043 10.0989C25.8591 10.1001 25.7151 10.0725 25.5807 10.0175C25.4463 9.96247 25.3241 9.88125 25.2214 9.77856C25.1187 9.67586 25.0375 9.55374 24.9825 9.41932C24.9275 9.28491 24.8999 9.14088 24.9011 8.99566C24.9024 8.85043 24.9326 8.70691 24.9899 8.57346C25.0472 8.44002 25.1305 8.31933 25.235 8.21844C25.4413 8.0192 25.7176 7.90896 26.0043 7.91145C26.2911 7.91394 26.5654 8.02897 26.7682 8.23176C26.971 8.43455 27.0861 8.70888 27.0885 8.99566C27.091 9.28243 26.9808 9.55872 26.7816 9.765ZM9.765 26.7816C9.66411 26.886 9.54342 26.9694 9.40997 27.0267C9.27653 27.084 9.13301 27.1142 8.98778 27.1154C8.84256 27.1167 8.69853 27.089 8.56411 27.034C8.4297 26.979 8.30758 26.8978 8.20488 26.7951C8.10219 26.6924 8.02097 26.5703 7.96598 26.4359C7.91098 26.3015 7.88331 26.1574 7.88457 26.0122C7.88583 25.867 7.916 25.7235 7.97333 25.59C8.03065 25.4566 8.11397 25.3359 8.21844 25.235C8.42472 25.0358 8.70101 24.9255 8.98778 24.928C9.27456 24.9305 9.54889 25.0455 9.75168 25.2483C9.95447 25.4511 10.0695 25.7254 10.072 26.0122C10.0745 26.299 9.96424 26.5753 9.765 26.7816V26.7816ZM25.235 26.7816C25.1305 26.6807 25.0472 26.56 24.9899 26.4265C24.9326 26.2931 24.9024 26.1496 24.9011 26.0043C24.8999 25.8591 24.9275 25.7151 24.9825 25.5807C25.0375 25.4463 25.1187 25.3241 25.2214 25.2214C25.3241 25.1187 25.4463 25.0375 25.5807 24.9825C25.7151 24.9275 25.8591 24.8999 26.0043 24.9011C26.1496 24.9024 26.2931 24.9326 26.4265 24.9899C26.56 25.0472 26.6807 25.1305 26.7816 25.235C26.9808 25.4413 27.091 25.7176 27.0885 26.0043C27.0861 26.2911 26.971 26.5654 26.7682 26.7682C26.5654 26.971 26.2911 27.0861 26.0043 27.0885C25.7176 27.091 25.4413 26.9808 25.235 26.7816ZM8.21844 9.765C8.11397 9.66411 8.03065 9.54342 7.97333 9.40997C7.916 9.27653 7.88583 9.13301 7.88457 8.98778C7.88331 8.84256 7.91098 8.69853 7.96598 8.56411C8.02097 8.4297 8.10219 8.30758 8.20488 8.20488C8.30758 8.10219 8.4297 8.02097 8.56411 7.96598C8.69853 7.91098 8.84256 7.88331 8.98778 7.88457C9.13301 7.88583 9.27653 7.916 9.40997 7.97333C9.54342 8.03065 9.66411 8.11397 9.765 8.21844C9.96424 8.42472 10.0745 8.70101 10.072 8.98778C10.0695 9.27456 9.95447 9.54889 9.75168 9.75168C9.54889 9.95447 9.27456 10.0695 8.98778 10.072C8.70101 10.0745 8.42472 9.96424 8.21844 9.765V9.765Z" fill="#4F5155"/>
</svg>
